<svg xmlns="http://www.w3.org/2000/svg" width="512" height="512" viewBox="0 0 512 512">
  <g>
    <polygon points="384 440 398 412 398 362 405 362 405 334 398 334 398 221 405 221 405 192 398 192 398 143 355 72 157 72 114 143 114 192 107 192 107 221 114 221 114 334 107 334 107 362 114 362 114 412 128 440 384 440" fill="#fff"/>
    <polygon points="383 412 383 184 355 114 157 114 129 184 129 412 383 412" fill="#e6e7e8"/>
    <polygon points="370 398 370 185 348 143 164 143 142 185 142 398 370 398" fill="#d1d3d4"/>
  </g>
</svg>
