<svg xmlns="http://www.w3.org/2000/svg" xmlns:xlink="http://www.w3.org/1999/xlink" width="768" height="512" viewBox="0 0 768 512">
  <image width="2048" height="1024" transform="translate(128 128) scale(0.25)" xlink:href="../../loadout_assets/Items/31308.png"/>
  <g>
    <polygon points="347 277 349 307 357 354 407 345 400 303 398 278 398 270 347 277" fill="#d1d3d4"/>
    <path d="M532,166v2l-18,36v5h8v-3h15v3h7V166Zm5,36H522l9-25h6Z" fill="#d1d3d4"/>
    <path d="M403,188V171l-4-4-104-9-6,4v13h-3v12h-4v2H272v2H406v-3Zm-8-6h-6l-5,2v3H336v-3l-5-2h-9l-1-2,4-9h70Z" fill="#d1d3d4"/>
    <polygon points="137 291 144 291 232 232 272 232 272 249 283 249 290 257 290 264 254 314 297 321 319 278 319 257 344 257 344 279 399 271 399 239 406 235 406 234 413 232 413 240 515 240 515 228 523 228 523 225 537 225 537 228 544 228 544 225 638 225 638 208 515 208 515 193 413 193 413 201 406 199 406 190 272 190 272 202 261 202 261 209 232 209 232 207 130 207 130 218 137 291" fill="#fff"/>
    <rect x="343" y="200" width="54" height="18" fill="#d1d3d4"/>
    <polygon points="300 246 297 241 300 236 307 236 308 238 319 238 319 244 308 244 307 246 300 246" fill="#d1d3d4"/>
  </g>
</svg>
