<svg xmlns="http://www.w3.org/2000/svg" width="64" height="64" viewBox="0 0 64 64"><path d="M38.3,39.9s-17.5-.7-18.5.3S20.9,45.6,22,47c3.2,4.1,9.3,5.5,14.1,3.7,2.9-1.1,4.6-1.9,4.6-5.2V42.1C40.7,39.9,40.3,39.9,38.3,39.9Z" fill="#231f20"/><path d="M19.8,37.7c.5.4,1.7.3,2.3.3H38c.6,0,2,.2,2.4-.5s-.1-1.9-.3-2.6L38.6,30a7.3,7.3,0,0,0-1.1-2.7,4.5,4.5,0,0,0-3-.7,36.2,36.2,0,0,0-7.4.2,12.4,12.4,0,0,0-6.9,6.6C19.8,34.3,18.9,36.9,19.8,37.7Z" fill="#231f20"/><path d="M50.1,13.4a5.8,5.8,0,0,0-8.1,2A5,5,0,0,0,40.1,13c-.9-.6-3.2-.4-4.3-.4H26.5c-2.5,0-3.8.7-4.9,3.1-.4.7-.7,2.4,0,3s4.4.4,5.5.4v5.6h9.3c.1-1.3.9-3.2,2-1.2L40.2,29c.7,2.8,2.4,7,2.4,9.7v8a4.8,4.8,0,0,0,.3,2.4c1,1.3,3.2,0,3.7-1.2s.9-4.9,1-6.1l.5-5.9L44.5,23.8a5.9,5.9,0,0,0,3.7.3,5.7,5.7,0,0,0,2.7-1.6A6.1,6.1,0,0,0,50.1,13.4ZM47,22.6a4.2,4.2,0,0,1-4.2-4.2,4.2,4.2,0,1,1,8.4,0A4.2,4.2,0,0,1,47,22.6Z" fill="#231f20"/></svg>