<svg xmlns="http://www.w3.org/2000/svg" width="64" height="64" viewBox="0 0 64 64"><path d="M22.4,36.6a1,1,0,0,1-1-.9L20.1,22.2a1,1,0,0,0-1.9-.3l-2,4.7a1,1,0,0,1-1.4.5l-3.1-1.4a1,1,0,0,1-.5-1.4l4-8.1.5-.5,6.6-2.5,2.1.3h.8l1.9-.2h.8l2-.8,6.9,1.3a.9.9,0,0,1,.6.4l5.5,7.2a1,1,0,0,1-.3,1.4l-2.8,2a1,1,0,0,1-1.4-.2l-2.8-4.3a1,1,0,0,0-1.9.7L35,34.3a1,1,0,0,1-.9,1.1Z" fill="none" stroke="#231f20" stroke-miterlimit="10" stroke-width="1.75"/><path d="M41.6,27.7l10.9,4a.6.6,0,0,1,.4.7L46.6,51.2a.6.6,0,0,1-.8.3L42,50.1a.5.5,0,0,1-.3-.7l4.1-14.6a.7.7,0,0,0-.3-.8h0a.7.7,0,0,0-.8.4L38.4,48.2a.6.6,0,0,1-.8.3l-3.8-1.4a.6.6,0,0,1-.3-.8L40.9,28A.5.5,0,0,1,41.6,27.7Z" fill="none" stroke="#231f20" stroke-miterlimit="10" stroke-width="1.75"/><line x1="20" y1="39" x2="20" y2="55" fill="none" stroke="#231f20" stroke-miterlimit="10" stroke-width="1.65"/><line x1="26" y1="39" x2="26" y2="55" fill="none" stroke="#231f20" stroke-miterlimit="10" stroke-width="1.65"/><line x1="15" y1="44" x2="31" y2="44" fill="none" stroke="#231f20" stroke-miterlimit="10" stroke-width="1.65"/><line x1="15" y1="50" x2="31" y2="50" fill="none" stroke="#231f20" stroke-miterlimit="10" stroke-width="1.65"/></svg>