<svg xmlns="http://www.w3.org/2000/svg" width="64" height="64" viewBox="0 0 64 64"><path d="M13.8,18.8V45.2H10.2V18.8h3.6m.4-1.3H9.8a.7.7,0,0,0-.8.8V45.7a.7.7,0,0,0,.8.8h4.4a.7.7,0,0,0,.8-.8V18.3a.7.7,0,0,0-.8-.8Z" fill="#231f20"/><path d="M55.8,18.8V45.2H52.2V18.8h3.6m.4-1.3H51.8a.7.7,0,0,0-.8.8V45.7a.7.7,0,0,0,.8.8h4.4a.7.7,0,0,0,.8-.8V18.3a.7.7,0,0,0-.8-.8Z" fill="#231f20"/><path d="M49.5,18.8V45.2h-33V18.8h33m.5-1.3H16a.8.8,0,0,0-.8.8V45.7a.8.8,0,0,0,.8.8H50a.8.8,0,0,0,.8-.8V18.3a.8.8,0,0,0-.8-.8Z" fill="#231f20"/></svg>