<svg xmlns="http://www.w3.org/2000/svg" width="64" height="64" viewBox="0 0 64 64"><path d="M26.5,22.9v1H18.6a2.3,2.3,0,0,0,0,2c.1.1,5.9,0,5.9,0v1.4H20.4l-1.8.3v1.5H5.5c-.9,0-1.1-.1-1.1,1.3v6.3h1l4.1-1.5,6.7-2.6a10.5,10.5,0,0,1,3-.5,1.5,1.5,0,0,1,1,.9c-.1,2.4-2.3,6.2-2.3,6.2a29.8,29.8,0,0,0,3.3.4c.4-.1,1.2-2.4,1.6-3.5a6.3,6.3,0,0,0,.3-2.3h2.2v5.1l5.4-.9.3-6.5,9.6-.2,2.1-.3h5.5v-.8H49v.4h2.3v-.4h7.9c.2,0,.7.1.8-.1V28.7H51.3v-.3H49c-.1-.4-.1-.6-.4-.8a2.5,2.5,0,0,0-1.2-.2H30.5V25.9a17.1,17.1,0,0,0,5.5.5v-3H33.4l-2.6.5H28.5v-1Zm3,3v.5h-4v-.5Z" fill="#231f20"/></svg>